<svg width="54" height="52" viewBox="0 0 54 52" fill="none" xmlns="http://www.w3.org/2000/svg">
<g filter="url(#filter0_d)">
<path d="M24.4592 25.1088L16.6916 27.7121C16.6916 27.7121 16.0805 26.9561 15.5701 26.5694C15.0262 26.1573 14 25.7124 14 25.7124C14 24.0935 14.4481 22.6306 15.5701 20.9511C16.4921 19.5709 17.8159 18.4465 18.7414 17.8594C19.3853 18.8009 20.0679 19.3601 20.8345 19.8501C21.1435 20.0477 21.4672 20.2346 21.8056 20.43C21.9124 20.4917 22.0206 20.5542 22.1303 20.6181C22.5888 20.8855 23.077 21.1803 23.6034 21.5505C24.199 21.9693 24.6672 22.3199 25.1006 22.6739C25.0922 23.0413 25.0529 23.822 24.8735 24.1942C24.6146 24.7313 24.4592 25.1088 24.4592 25.1088Z" fill="#16C995"/>
<path d="M26.732 23.858C25.7223 22.8913 25.0236 22.3018 23.7465 21.4038C23.2125 21.0283 22.7181 20.7298 22.2572 20.4611C22.1456 20.3961 22.0363 20.3329 21.9289 20.2709L21.9285 20.2707C21.5913 20.0759 21.2737 19.8925 20.9694 19.698C20.2179 19.2176 19.5536 18.673 18.9239 17.7469C19.7694 17.237 20.4418 16.9692 21.0446 16.7292C21.8412 16.412 22.5161 16.1432 23.3084 15.4281C24.5591 14.2992 25.6636 12 25.6636 12C25.6636 12 33.9557 17.2173 36.4683 21.0132L27.1215 24.1888L26.732 23.858Z" fill="#16C995"/>
<path d="M30.1495 35.6157C29.1242 35.9167 29.1402 35.7109 29.1402 35.7109C29.1402 35.7109 29.2299 34.7196 29.2523 33.616C29.2641 33.0388 29.2484 32.6244 28.8037 32.1876C28.322 31.7145 27.7764 31.572 27.0416 31.6163C26.2666 31.663 26.039 31.8646 25.6636 32.2829C25.3981 32.5786 25.257 33.1703 25.257 33.1703C25.257 33.1703 25.0469 33.9949 24.7664 34.473C24.3637 35.1592 23.7118 36.0751 23.3084 35.9966C21.9912 35.7403 20.6222 35.2432 19.1589 34.3778C18.0903 33.7459 16.6916 32.4733 16.6916 32.4733C16.6916 32.4733 17.2431 31.4573 17.3645 30.7593C17.499 29.9858 17.2523 28.7595 17.2523 28.7595L23.9776 26.3929C23.9776 26.3929 23.7801 27.2705 24.0214 27.7664C24.5062 28.7632 25.8407 29.1423 27.0416 28.791C28.3448 28.4097 29.0245 27.7108 28.5794 26.0933C28.4066 25.465 27.9395 25.0458 27.9395 25.0458L37.0245 21.9674C37.6522 23.2036 38 24.5663 38 25.998C38 28.7203 36.4647 31.7698 34.0748 33.616C33.0501 34.4075 31.4064 35.2468 30.1495 35.6157Z" fill="#16C995"/>
<path d="M24.4592 25.1088L16.6916 27.7121C16.6916 27.7121 16.0805 26.9561 15.5701 26.5694C15.0262 26.1573 14 25.7124 14 25.7124C14 24.0935 14.4481 22.6306 15.5701 20.9511C16.4921 19.5709 17.8159 18.4465 18.7414 17.8594C19.3853 18.8009 20.0679 19.3601 20.8345 19.8501C21.1435 20.0477 21.4672 20.2346 21.8056 20.43C21.9124 20.4917 22.0206 20.5542 22.1303 20.6181C22.5888 20.8855 23.077 21.1803 23.6034 21.5505C24.199 21.9693 24.6672 22.3199 25.1006 22.6739C25.0922 23.0413 25.0529 23.822 24.8735 24.1942C24.6146 24.7313 24.4592 25.1088 24.4592 25.1088Z" fill="#16C995"/>
<path d="M26.732 23.858C25.7223 22.8913 25.0236 22.3018 23.7465 21.4038C23.2125 21.0283 22.7181 20.7298 22.2572 20.4611C22.1456 20.3961 22.0363 20.3329 21.9289 20.2709L21.9285 20.2707C21.5913 20.0759 21.2737 19.8925 20.9694 19.698C20.2179 19.2176 19.5536 18.673 18.9239 17.7469C19.7694 17.237 20.4418 16.9692 21.0446 16.7292C21.8412 16.412 22.5161 16.1432 23.3084 15.4281C24.5591 14.2992 25.6636 12 25.6636 12C25.6636 12 33.9557 17.2173 36.4683 21.0132L27.1215 24.1888L26.732 23.858Z" fill="#16C995"/>
<path d="M30.1495 35.6157C29.1242 35.9167 29.1402 35.7109 29.1402 35.7109C29.1402 35.7109 29.2299 34.7196 29.2523 33.616C29.2641 33.0388 29.2484 32.6244 28.8037 32.1876C28.322 31.7145 27.7764 31.572 27.0416 31.6163C26.2666 31.663 26.039 31.8646 25.6636 32.2829C25.3981 32.5786 25.257 33.1703 25.257 33.1703C25.257 33.1703 25.0469 33.9949 24.7664 34.473C24.3637 35.1592 23.7118 36.0751 23.3084 35.9966C21.9912 35.7403 20.6222 35.2432 19.1589 34.3778C18.0903 33.7459 16.6916 32.4733 16.6916 32.4733C16.6916 32.4733 17.2431 31.4573 17.3645 30.7593C17.499 29.9858 17.2523 28.7595 17.2523 28.7595L23.9776 26.3929C23.9776 26.3929 23.7801 27.2705 24.0214 27.7664C24.5062 28.7632 25.8407 29.1423 27.0416 28.791C28.3448 28.4097 29.0245 27.7108 28.5794 26.0933C28.4066 25.465 27.9395 25.0458 27.9395 25.0458L37.0245 21.9674C37.6522 23.2036 38 24.5663 38 25.998C38 28.7203 36.4647 31.7698 34.0748 33.616C33.0501 34.4075 31.4064 35.2468 30.1495 35.6157Z" fill="#16C995"/>
<path d="M14.5607 29.3309C14.9593 30.2879 16.0187 31.6163 16.0187 31.6163C16.0187 31.6163 16.5208 30.0811 16.243 29.1405C15.8936 27.9572 14 26.6646 14 26.6646C14 26.6646 14.1454 28.3337 14.5607 29.3309Z" fill="url(#paint0_radial)"/>
<rect x="1.5" y="1.5" width="49" height="47" rx="23.5" stroke="url(#paint1_linear)" stroke-width="3"/>
</g>
<defs>
<filter id="filter0_d" x="0" y="0" width="54" height="52" filterUnits="userSpaceOnUse" color-interpolation-filters="sRGB">
<feFlood flood-opacity="0" result="BackgroundImageFix"/>
<feColorMatrix in="SourceAlpha" type="matrix" values="0 0 0 0 0 0 0 0 0 0 0 0 0 0 0 0 0 0 127 0"/>
<feOffset dx="1" dy="1"/>
<feGaussianBlur stdDeviation="0.5"/>
<feColorMatrix type="matrix" values="0 0 0 0 0.415889 0 0 0 0 0.361528 0 0 0 0 0.633333 0 0 0 0.53 0"/>
<feBlend mode="normal" in2="BackgroundImageFix" result="effect1_dropShadow"/>
<feBlend mode="normal" in="SourceGraphic" in2="effect1_dropShadow" result="shape"/>
</filter>
<radialGradient id="paint0_radial" cx="0" cy="0" r="1" gradientUnits="userSpaceOnUse" gradientTransform="translate(25.4392 22.0938) rotate(-65.8361) scale(8.76705 12.0292)">
<stop offset="0.564605" stop-color="#16C995"/>
<stop offset="1" stop-color="#489B83"/>
</radialGradient>
<linearGradient id="paint1_linear" x1="42.0097" y1="4.73372" x2="-2.97909" y2="43.2396" gradientUnits="userSpaceOnUse">
<stop stop-color="#5CEFC3"/>
<stop offset="1" stop-color="#3C7161"/>
</linearGradient>
</defs>
</svg>
